<svg xmlns="http://www.w3.org/2000/svg" width="512" height="512" viewBox="0 0 512 512">
  <title>缺</title>
  <path fill="#111622" d="M333.21670311333116 269.97816814677526Q338.6766748650168 295.6366551481459 352.7066140005902 323.031694264917Q366.73655313616365 350.4267333816881 392.9650547720731 375.333740408847Q419.1935564079825 400.24074743600596 460.8 419.4372893867419L460.2470644424744 424.344325580902Q447.1851183710765 426.6421748730818 439.51376022779425 433.2939468826432Q431.84240208451206 439.9457188922046 429.68260876246086 454.873555591372Q402.71081085234056 437.7852138931419 384.1364103634473 415.15061546189577Q365.562009874554 392.51601703064966 353.907665473984 367.4711319526151Q342.2533210734141 342.42624687458056 335.6702212104112 317.55410967845955Q329.0871213474083 292.6819724823385 325.94243380342135 271.82697969753156ZM347.4193901308181 62.22348548096784Q346.9874314664079 66.54307212507024 343.7477414833311 69.78276210814704Q340.5080515002542 73.02245209122384 332.14534599081213 74.04186030569178V217.48593920541276Q331.98985510516474 254.35791656593076 326.06341069653666 288.9146097187501Q320.1369662879086 323.4713028715695 305.5540915948096 354.33909038063575Q290.97121690171065 385.20687788970196 264.5267359335961 410.9343928761369Q238.08225496548155 436.6619078625718 196.76971406774578 455.4435702259108L192.2081736374127 449.8971355736419Q225.3138557498596 428.97311480377067 246.3072603433008 403.19382882853756Q267.300664936742 377.4145428533044 278.87726389448824 347.8426313374689Q290.45386285223447 318.2707198216334 295.0326602788336 285.33814142960574Q299.6114577054327 252.4055630375781 299.6114577054327 217.3304483197653V57.24742130174343ZM373.6144452897126 134.274119536895 391.3589086845589 115.51024792758074 427.7637017111231 143.84623813898457Q423.01215640261046 149.34072388320237 409.22399313401485 152.20894364842667V274.1422639052302H377.93403193381505V134.274119536895ZM428.0924742364427 243.45647549359558Q428.0924742364427 243.45647549359558 433.6042169769266 248.51028511564368Q439.1159597174105 253.5640947376918 446.433282558359 260.8727001208809Q453.7506053993076 268.18130550407 459.5215589222882 274.7297134552879Q457.79372426464727 281.64105208585175 448.5671014263847 281.64105208585175H244.87261670293012L241.41694738764818 268.9932739248394H410.67607168990446ZM396.8363153517636 134.274119536895V146.92189769790735H252.23334891342313L248.34572093373097 134.274119536895ZM66.30147417734526 387.9551882773281Q79.1392572165372 387.12578494103974 101.80836964031543 384.7412948290239Q124.47748206409366 382.3568047170081 153.1335273430576 378.7714410508514Q181.78957262202158 375.18607738469467 212.09570711580278 371.5229682757142L212.92511045209113 378.2443020280985Q190.68777877347028 384.7927099793164 154.1095261879811 396.0494317887553Q117.53127360249192 407.3061535981943 75.49322718456993 418.51964395734166ZM92.1147403873519 286.5310092029987 99.23316297310856 290.83316093158214V393.6222439842066L75.32065722190927 402.0710565557261L88.07162152201228 391.7734324334503Q90.5423966153584 406.7706529561877 84.6246696644898 415.21092598920063Q78.7069427136212 423.6511990222135 73.10891499180701 425.88002032932894L57.956203583422145 390.0110837832772Q65.45499176404371 386.36540958981567 67.47655119671353 383.44541883579325Q69.49811062938335 380.52542808177077 69.49811062938335 375.58387789507856V286.5310092029987ZM113.6262107072808 271.0840392618264Q113.19425204287057 275.21362102774924 109.8508421629445 278.0040953501497Q106.50743228301842 280.7945696725502 99.23316297310856 281.93495478013347V299.12683845595996H69.49811062938335V273.48578637010826V266.1424890751341ZM240.3281553496102 271.55051191876873Q239.89619668519998 275.40362590592883 236.9674884734181 278.13361178177166Q234.03878026163616 280.8635976576145 227.006464737957 281.7275149864349V409.58692381336084Q227.006464737957 410.88279980659155 223.44725344507867 412.92161623552744Q219.88804215220034 414.9604326644633 214.4887367663252 416.3513110967839Q209.08943138045004 417.7421895291044 203.76787143739858 417.7421895291044H197.5823941655267V267.04092039648674ZM216.17333997367456 198.34276951675082Q216.17333997367456 198.34276951675082 222.36753470330592 203.45706758535658Q228.56172943293728 208.57136565396237 237.14895381309105 215.8627140408854Q245.73617819324485 223.15406242780844 252.28458614446274 230.1344290434366Q250.55675148682175 237.04576767400047 241.17463776291177 237.04576767400047H55.7960544228652L52.34038510758326 224.39798951298812H196.61457902060405ZM164.13050461224123 124.87457089746607V387.54030868993107H132.99603429768894V124.87457089746607ZM202.00516694871976 97.92091957987617Q202.00516694871976 97.92091957987617 208.41534101055623 103.25119698068707Q214.82551507239273 108.58147438149797 223.70646422757537 116.02831365406848Q232.587413382758 123.475152926639 239.13582133397588 130.4555195422671Q237.83994534074515 137.36685817283097 228.02587295242492 137.36685817283097H93.79098197544755V124.71908001181862H182.01444733123904ZM146.3508155478513 69.89484362425003Q145.33140733338337 73.66149471082684 141.42652235742514 76.17550125446459Q137.52163738146692 78.68950779810234 130.45480786525556 78.84499868374974Q117.99739042092855 116.89187514438316 99.43206322830049 149.29749243291081Q80.86673603567243 181.70310972143844 57.48937508797403 203.69848761382863L51.19999999999999 199.8453736266686Q61.30797508260194 181.94506350766906 70.01635427512392 158.90448086603823Q78.72473346764588 135.86389822440742 85.72253499879295 109.60088259596586Q92.72033652994003 83.33786696752429 96.84991829586286 56.55642977408934Z"/>
</svg>
