<svg xmlns="http://www.w3.org/2000/svg" width="512" height="512" viewBox="0 0 512 512"><title>草木皆兵 皆</title><defs><filter id="rg" x="-8%" y="-8%" width="116%" height="116%"><feTurbulence type="fractalNoise" baseFrequency="0.042" numOctaves="3" seed="7" result="n"/><feDisplacementMap in="SourceGraphic" in2="n" scale="7"/></filter>
<filter id="rs" x="-25%" y="-25%" width="150%" height="150%"><feTurbulence type="fractalNoise" baseFrequency="0.06" numOctaves="2" seed="13" result="n"/><feDisplacementMap in="SourceGraphic" in2="n" scale="12"/><feGaussianBlur stdDeviation="0.6"/></filter>
<filter id="pa"><feTurbulence type="fractalNoise" baseFrequency="0.012 0.02" numOctaves="2" seed="11"/><feColorMatrix values="0 0 0 0 1 0 0 0 0 1 0 0 0 0 1 0.7 0.7 0.7 0 -0.15"/></filter>
<mask id="sm"><rect width="512" height="512" fill="#c8c8c8"/><rect width="512" height="512" filter="url(#pa)"/></mask></defs><g filter="url(#rg)"><g mask="url(#sm)"><g transform="translate(214 320) rotate(5) scale(0.56) translate(-256 -256)"><path d="M158.80487642171266 58.16575688221832Q158.37100541236288 62.93833798506586 154.81216942112295 66.16308124970863Q151.253333429883 69.3878245143514 142.6930704648097 70.68943754240075V84.54948910897184H87.94996820649803V58.57580715894625V51.200000000000045ZM129.3473428099844 69.9845477696802 142.6930704648097 78.21715980160855V224.53791002868886L96.44071541489278 234.82271988544386L119.28591025135651 215.57853393260504Q123.56604173389316 231.41033042160677 121.81864733018313 243.4306243157609Q120.07125292647308 255.450918209915 114.89955869261502 263.0793919724689Q109.72786445875694 270.7078657350228 104.18087782651024 274.31981176436517L68.75342371890292 220.40969364641373Q81.2423465007461 212.4004589126125 84.59615735362206 207.70383535989566Q87.94996820649803 203.00721180717886 87.94996820649803 196.04145492496056V69.9845477696802ZM81.91053195394039 218.63945173067535Q95.93538220767745 216.47009668392644 120.66056116775613 211.480580076404Q145.38574012783482 206.49106346888155 176.96498732106824 199.7367735184794Q208.54423451430168 192.98248356807724 241.48367334654557 185.606676409131L242.46857258716742 190.78930778870654Q222.73388345520468 203.4192085250938 187.3267279485475 224.4748360654625Q151.91957244189032 245.5304636058312 105.88160398557007 268.9962024302455ZM197.71933357199208 90.27026513291497Q197.71933357199208 90.27026513291497 202.66218193486432 94.56230698176253Q207.60503029773656 98.85434883061009 215.40923989317386 105.38623470347864Q223.21344948861116 111.91812057634718 231.66846559807314 119.31774846791527Q240.12348170753512 126.71737635948335 246.71394619136478 133.36641945427414Q244.9784621539657 140.3083556038706 234.36600136406574 140.3083556038706H120.01267431551194V128.04281012015457H170.6068908398961ZM430.1847509765471 113.04594421270014Q427.2648111330209 116.45833367653722 421.5539990342017 117.77185707089748Q415.8431869353825 119.08538046525774 405.0897481909385 117.3498964278586Q391.1472972807844 125.33531042903803 372.6025325278075 133.65481715681463Q354.0577677748306 141.97432388459123 332.37612767365255 149.42608859366823Q310.6944875724745 156.87785330274522 287.7579026878974 162.57675503525348L285.78810420665377 157.94515188695004Q301.4183976889632 147.01597730962254 317.22442700415604 132.64512396297744Q333.0304563193489 118.27427061633233 346.17468096748195 103.19403214470142Q359.318905615615 88.11379367307052 367.3390774951338 76.1997198551212ZM320.42826919795743 57.84904309479083Q319.560527179258 67.33562668952482 306.6615541206868 69.01253211596276V187.49212910560468Q306.6615541206868 192.00657503198588 309.38193739870775 193.9297052685793Q312.1023206767287 195.85283550517275 321.1659704078303 195.85283550517275H357.31629569721906Q366.09798951923244 195.85283550517275 374.14745070423174 195.85283550517275Q382.19691188923105 195.85283550517275 386.16032958434016 195.41896449582296Q394.1695643181414 195.36038588486184 398.5320951442611 190.6463833929754Q402.2026197845646 185.87380229012783 407.46218193486436 174.58768747417486Q412.7217440851641 163.30157265822191 418.3858879393331 147.99893010905743H422.84175525475314L424.51866068119114 191.94799642102473Q435.47165599114044 196.3105272471444 439.3591161361188 201.235996670847Q443.2465762810972 206.16146609454958 443.2465762810972 213.32677954227316Q443.2465762810972 224.53791002868886 434.9206277598684 231.4862879717375Q426.5946792386396 238.4346659147862 406.58350277044735 241.42509473558445Q386.5723263022551 244.4155235563827 351.0534821465344 244.4155235563827H308.11313580781064Q284.9879315034457 244.4155235563827 272.80381214271915 240.5573527168849Q260.61969278199257 236.69918187738708 256.0814261229895 226.61392858613732Q251.54315946398648 216.5286752948876 251.54315946398648 198.8442375465645V52.00916340773847ZM280.62929355970005 243.61924373554868Q277.90891028167914 254.11454730352636 262.5824469998928 254.68939626742025Q251.88758686640983 262.09996130470574 236.27916767553523 272.2135306808426Q220.6707484846606 282.3271000569794 209.91730974021658 288.86992307556534H187.8117625548127Q189.8401396470175 281.06024490726935 192.36096635953317 270.5301834609524Q194.88179307204885 260.00012201463545 197.4319090900451 248.8485433597744Q199.98202510804137 237.69696470491334 201.5765311908964 228.585673508568ZM164.86813340689213 442.5992918987442Q164.86813340689213 445.343495909387 157.81997718109085 449.7060267355066Q150.77182095528954 454.0685575616263 139.9826511119127 457.4342787808132Q129.19348126853586 460.80000000000007 117.34892320726514 460.80000000000007H108.99915395341452V282.56141450082396V259.271411509293L168.16336564880697 282.56141450082396H348.9993378805208V294.82695998454H164.86813340689213ZM316.65662230360556 282.56141450082396 342.0574017309243 254.35785245190132 395.20405146519397 294.6164662733173Q393.4099888168337 297.21969232941603 389.14176770060794 299.95198597374787Q384.8735465843822 302.6842796180797 377.9901890457469 303.98589264612906V444.99202424362016Q377.9901890457469 446.66892967005816 369.9159339075323 449.93487260649243Q361.8416787693177 453.2008155429267 351.0232196204603 455.84524127081687Q340.20476047160287 458.48966699870704 330.7291140225864 458.48966699870704H320.9953323971034V282.56141450082396ZM351.3334916144356 415.6883521733405V427.95389765705653H141.4957310717782V415.6883521733405ZM351.3334916144356 347.4772672161248V359.74281269984084H141.4957310717782V347.4772672161248Z" fill="#FFFFFF"/></g></g></g></svg>
