<svg xmlns="http://www.w3.org/2000/svg" width="120" height="120" viewBox="0 0 120 120"><filter id="rough" x="-5%" y="-5%" width="110%" height="110%"><feTurbulence type="fractalNoise" baseFrequency=".9" numOctaves="2" seed="52"/><feDisplacementMap in="SourceGraphic" scale="1.8"/></filter><g filter="url(#rough)" fill="#FFFFFF" opacity=".88"><path transform="translate(12 24) rotate(-178.2)" d="M0 0 Q6.45 -6.57 15.36 0 Q6.45 6.57 0 0 Z"/><path transform="translate(12 24) rotate(-140.79)" d="M0 0 Q4.84 -5.84 11.53 0 Q4.84 5.84 0 0 Z"/><path transform="translate(12 24) rotate(-100.89)" d="M0 0 Q5.01 -6.82 11.94 0 Q5.01 6.82 0 0 Z"/><path transform="translate(12 24) rotate(-69.64)" d="M0 0 Q5.48 -6.07 13.05 0 Q5.48 6.07 0 0 Z"/><path transform="translate(12 24) rotate(-35.72)" d="M0 0 Q6.03 -5.43 14.35 0 Q6.03 5.43 0 0 Z"/><path transform="translate(12 24) rotate(-10.95)" d="M0 0 Q5.76 -5.34 13.71 0 Q5.76 5.34 0 0 Z"/><path transform="translate(108 32) rotate(-167.02)" d="M0 0 Q4.89 -6.33 11.65 0 Q4.89 6.33 0 0 Z"/><path transform="translate(108 32) rotate(-139.88)" d="M0 0 Q5.01 -6.7 11.93 0 Q5.01 6.7 0 0 Z"/><path transform="translate(108 32) rotate(-103.24)" d="M0 0 Q6.05 -6.81 14.39 0 Q6.05 6.81 0 0 Z"/><path transform="translate(108 32) rotate(-75.81)" d="M0 0 Q6.1 -5.82 14.53 0 Q6.1 5.82 0 0 Z"/><path transform="translate(108 32) rotate(-48.2)" d="M0 0 Q5.96 -6.52 14.2 0 Q5.96 6.52 0 0 Z"/><path transform="translate(108 32) rotate(-8.53)" d="M0 0 Q6.26 -5.94 14.9 0 Q6.26 5.94 0 0 Z"/><path transform="translate(14 60) rotate(200)" d="M0 0 Q4.62 -5.2 11 0 Q4.62 5.2 0 0 Z"/><path transform="translate(106 64) rotate(-20)" d="M0 0 Q4.62 -5.2 11 0 Q4.62 5.2 0 0 Z"/></g></svg>