<svg xmlns="http://www.w3.org/2000/svg" width="512" height="512" viewBox="0 0 512 512"><g><defs>
<filter id="L0_rg" x="-8%" y="-8%" width="116%" height="116%"><feTurbulence type="fractalNoise" baseFrequency="0.042" numOctaves="3" seed="7" result="n" /><feDisplacementMap in="SourceGraphic" in2="n" scale="7" /></filter>
<filter id="L0_rs" x="-25%" y="-25%" width="150%" height="150%"><feTurbulence type="fractalNoise" baseFrequency="0.06" numOctaves="2" seed="13" result="n" /><feDisplacementMap in="SourceGraphic" in2="n" scale="12" /><feGaussianBlur stdDeviation="0.6" /></filter>
<filter id="L0_pa"><feTurbulence type="fractalNoise" baseFrequency="0.012 0.02" numOctaves="2" seed="11" /><feColorMatrix values="0 0 0 0 1 0 0 0 0 1 0 0 0 0 1 0.7 0.7 0.7 0 -0.15" /></filter>
<filter id="L0_pb"><feTurbulence type="fractalNoise" baseFrequency="0.016 0.011" numOctaves="2" seed="29" /><feColorMatrix values="0 0 0 0 1 0 0 0 0 1 0 0 0 0 1 1.2 1.2 1.2 0 -1.15" /></filter>
<mask id="L0_sm"><rect width="512" height="512" fill="#9a9a9a" /><rect width="512" height="512" filter="url(#L0_pa)" /></mask>
<mask id="L0_wt"><rect width="512" height="512" fill="#000" /><rect width="512" height="512" filter="url(#L0_pb)" /></mask>
<radialGradient id="L0_iris" cx="0.5" cy="0.4" r="0.6"><stop offset="0" stop-color="#c2a366" /><stop offset="0.6" stop-color="#997C3C" /><stop offset="1" stop-color="#5c4a22" /></radialGradient>
<radialGradient id="L0_aura" cx="0.5" cy="0.5" r="0.5"><stop offset="0" stop-color="#997C3C" stop-opacity="0.5" /><stop offset="1" stop-color="#997C3C" stop-opacity="0" /></radialGradient>
<clipPath id="L0_clip"><path d="M188.74411234897252 98.66271411909446H395.09686463633886L418.47684032715097 68.10770635974689Q418.47684032715097 68.10770635974689 422.7403505341352 71.56530588488323Q427.0038607411194 75.02290541001958 433.62442769769336 80.54292959104691Q440.2449946542673 86.06295377207425 447.5155010941926 92.31090303570124Q454.78600753411786 98.55885229932824 460.79999999999995 104.41687356671383Q459.3441498348009 111.34956138912804 449.3437904834916 111.34956138912804H192.21045626017965ZM285.4901564034727 98.66271411909446H329.26845236613235Q320.7239431800224 137.00057771959945 305.9054300409203 174.69706775397674Q291.0869169018182 212.39355778835403 270.44500310191927 247.58558579186862Q249.80308930202034 282.7776137953832 223.21642424941678 313.6973872058428Q196.62975919681324 344.6171606163024 164.27162439329595 369.834883957873L159.41867153006712 364.98193109464415Q184.3244524746446 338.2391163746969 205.20924592720627 306.41813637984677Q226.09403937976796 274.59715638499665 242.36858115291642 239.76043577113467Q258.64312292606485 204.92371515727265 269.64016323315434 169.13367858028982Q280.6372035402439 133.34364200330702 285.4901564034727 98.66271411909446ZM267.2040500712334 402.7994147832349H412.4278703169857V415.20894026286413H267.2040500712334ZM396.6911972278931 241.57980230551576H392.2022961403877L410.81604895328996 220.88631453342802L450.730042497819 251.80537406849896Q448.56357755331453 254.56110320040085 443.52003288500043 257.1001858378523Q438.47648821668633 259.6392684753037 431.9424727765843 261.09511864050296V441.6226807513711Q431.9424727765843 443.0785309165703 426.80381067457466 445.5742485613622Q421.66514857256504 448.0699662061541 414.94071979622487 450.1323908620451Q408.2162910198847 452.19481551793615 402.0984367342362 452.19481551793615H396.6911972278931ZM267.5159924682265 241.57980230551576H412.73981271397884V254.26664957554928H267.5159924682265ZM57.50880302842803 155.97873924591948H161.1175798167763L180.11287317754352 129.02855782413405Q180.11287317754352 129.02855782413405 183.69182329458766 132.11353965632338Q187.27077341163178 135.1985214885127 192.738866682776 140.2679423773448Q198.20695995392026 145.3373632661769 204.10834621396538 150.97873803911207Q210.0097324740105 156.62011281204724 214.65460476001246 161.73289869353886Q212.9214328044089 168.66558651595307 203.51033764049717 168.66558651595307H60.97514693963513ZM118.29152900415448 55.992277567274925 167.5816401683122 60.98371285685869Q166.87102538900695 65.47261394436418 163.18803498334938 68.72231136112083Q159.50504457769185 71.97200877787748 151.54979957897933 72.99456595417581V409.5250928415052Q151.54979957897933 422.5235255708376 148.66415393794605 432.0904134643987Q145.77850829691278 441.6573013579598 135.76101711115638 447.4546473293915Q125.7435259254 453.25199330082324 104.84195757608543 455.5744294438242Q104.13134279678019 447.53281139748697 102.25950994597446 441.1549456247286Q100.38767709516874 434.77707985197026 96.3320689965642 430.61760993359945Q92.15511030605187 426.33678942332085 84.74576450207724 423.5898046774897Q77.33641869810262 420.84281993165865 64.30300842448723 418.9190561709698V412.1769601536409Q64.30300842448723 412.1769601536409 70.05716787210656 412.61025314254175Q75.8113273197259 413.04354613144267 83.73195171184969 413.5375144162974Q91.65257610397347 414.0314827011522 99.00124661199419 414.4647756900531Q106.34991712001492 414.89806867895396 109.1056462519168 414.89806867895396Q114.7038345010396 414.89806867895396 116.49768175259703 413.1042214273965Q118.29152900415448 411.3103741758391 118.29152900415448 406.73474310301464ZM51.2 279.2777200906703Q61.20035935130918 276.9899045542581 78.2460127308696 272.33628788218533Q95.29166611043001 267.6826712101126 117.27682386969113 261.23520728648236Q139.26198162895224 254.78774336285218 163.92488292086693 247.19637167101587Q188.58778421278166 239.60499997917955 213.94398998070722 231.4416744032402L215.48657013122548 237.4385350346751Q191.75931756144288 250.41983592956024 157.24328373064478 269.67514077743743Q122.72724989984665 288.93044562531463 76.55584883023124 311.7386459008709Q75.6546422458407 315.7942539994754 72.88160281064447 318.70595432987386Q70.10856337544821 321.61765466027225 66.88492064805669 322.91753362697494ZM280.6878851681969 241.57980230551576V444.7770822655851Q280.6878851681969 445.95561064038 277.1956650364718 448.76327068216494Q273.7034449047467 451.57093072394997 267.5855906190983 453.7893265783375Q261.4677363334499 456.00772243272513 252.8022334931265 456.00772243272513H246.8057297993859V255.58330343900482L262.29970170466294 231.99560410866022L286.19934343200066 241.57980230551576Z" /></clipPath>
</defs><g transform="rotate(1 256 256)"><g filter="url(#L0_rg)"><g mask="url(#L0_sm)"><path d="M188.74411234897252 98.66271411909446H395.09686463633886L418.47684032715097 68.10770635974689Q418.47684032715097 68.10770635974689 422.7403505341352 71.56530588488323Q427.0038607411194 75.02290541001958 433.62442769769336 80.54292959104691Q440.2449946542673 86.06295377207425 447.5155010941926 92.31090303570124Q454.78600753411786 98.55885229932824 460.79999999999995 104.41687356671383Q459.3441498348009 111.34956138912804 449.3437904834916 111.34956138912804H192.21045626017965ZM285.4901564034727 98.66271411909446H329.26845236613235Q320.7239431800224 137.00057771959945 305.9054300409203 174.69706775397674Q291.0869169018182 212.39355778835403 270.44500310191927 247.58558579186862Q249.80308930202034 282.7776137953832 223.21642424941678 313.6973872058428Q196.62975919681324 344.6171606163024 164.27162439329595 369.834883957873L159.41867153006712 364.98193109464415Q184.3244524746446 338.2391163746969 205.20924592720627 306.41813637984677Q226.09403937976796 274.59715638499665 242.36858115291642 239.76043577113467Q258.64312292606485 204.92371515727265 269.64016323315434 169.13367858028982Q280.6372035402439 133.34364200330702 285.4901564034727 98.66271411909446ZM267.2040500712334 402.7994147832349H412.4278703169857V415.20894026286413H267.2040500712334ZM396.6911972278931 241.57980230551576H392.2022961403877L410.81604895328996 220.88631453342802L450.730042497819 251.80537406849896Q448.56357755331453 254.56110320040085 443.52003288500043 257.1001858378523Q438.47648821668633 259.6392684753037 431.9424727765843 261.09511864050296V441.6226807513711Q431.9424727765843 443.0785309165703 426.80381067457466 445.5742485613622Q421.66514857256504 448.0699662061541 414.94071979622487 450.1323908620451Q408.2162910198847 452.19481551793615 402.0984367342362 452.19481551793615H396.6911972278931ZM267.5159924682265 241.57980230551576H412.73981271397884V254.26664957554928H267.5159924682265ZM57.50880302842803 155.97873924591948H161.1175798167763L180.11287317754352 129.02855782413405Q180.11287317754352 129.02855782413405 183.69182329458766 132.11353965632338Q187.27077341163178 135.1985214885127 192.738866682776 140.2679423773448Q198.20695995392026 145.3373632661769 204.10834621396538 150.97873803911207Q210.0097324740105 156.62011281204724 214.65460476001246 161.73289869353886Q212.9214328044089 168.66558651595307 203.51033764049717 168.66558651595307H60.97514693963513ZM118.29152900415448 55.992277567274925 167.5816401683122 60.98371285685869Q166.87102538900695 65.47261394436418 163.18803498334938 68.72231136112083Q159.50504457769185 71.97200877787748 151.54979957897933 72.99456595417581V409.5250928415052Q151.54979957897933 422.5235255708376 148.66415393794605 432.0904134643987Q145.77850829691278 441.6573013579598 135.76101711115638 447.4546473293915Q125.7435259254 453.25199330082324 104.84195757608543 455.5744294438242Q104.13134279678019 447.53281139748697 102.25950994597446 441.1549456247286Q100.38767709516874 434.77707985197026 96.3320689965642 430.61760993359945Q92.15511030605187 426.33678942332085 84.74576450207724 423.5898046774897Q77.33641869810262 420.84281993165865 64.30300842448723 418.9190561709698V412.1769601536409Q64.30300842448723 412.1769601536409 70.05716787210656 412.61025314254175Q75.8113273197259 413.04354613144267 83.73195171184969 413.5375144162974Q91.65257610397347 414.0314827011522 99.00124661199419 414.4647756900531Q106.34991712001492 414.89806867895396 109.1056462519168 414.89806867895396Q114.7038345010396 414.89806867895396 116.49768175259703 413.1042214273965Q118.29152900415448 411.3103741758391 118.29152900415448 406.73474310301464ZM51.2 279.2777200906703Q61.20035935130918 276.9899045542581 78.2460127308696 272.33628788218533Q95.29166611043001 267.6826712101126 117.27682386969113 261.23520728648236Q139.26198162895224 254.78774336285218 163.92488292086693 247.19637167101587Q188.58778421278166 239.60499997917955 213.94398998070722 231.4416744032402L215.48657013122548 237.4385350346751Q191.75931756144288 250.41983592956024 157.24328373064478 269.67514077743743Q122.72724989984665 288.93044562531463 76.55584883023124 311.7386459008709Q75.6546422458407 315.7942539994754 72.88160281064447 318.70595432987386Q70.10856337544821 321.61765466027225 66.88492064805669 322.91753362697494ZM280.6878851681969 241.57980230551576V444.7770822655851Q280.6878851681969 445.95561064038 277.1956650364718 448.76327068216494Q273.7034449047467 451.57093072394997 267.5855906190983 453.7893265783375Q261.4677363334499 456.00772243272513 252.8022334931265 456.00772243272513H246.8057297993859V255.58330343900482L262.29970170466294 231.99560410866022L286.19934343200066 241.57980230551576Z" fill="#3D4E69" /></g><g mask="url(#L0_wt)"><path d="M188.74411234897252 98.66271411909446H395.09686463633886L418.47684032715097 68.10770635974689Q418.47684032715097 68.10770635974689 422.7403505341352 71.56530588488323Q427.0038607411194 75.02290541001958 433.62442769769336 80.54292959104691Q440.2449946542673 86.06295377207425 447.5155010941926 92.31090303570124Q454.78600753411786 98.55885229932824 460.79999999999995 104.41687356671383Q459.3441498348009 111.34956138912804 449.3437904834916 111.34956138912804H192.21045626017965ZM285.4901564034727 98.66271411909446H329.26845236613235Q320.7239431800224 137.00057771959945 305.9054300409203 174.69706775397674Q291.0869169018182 212.39355778835403 270.44500310191927 247.58558579186862Q249.80308930202034 282.7776137953832 223.21642424941678 313.6973872058428Q196.62975919681324 344.6171606163024 164.27162439329595 369.834883957873L159.41867153006712 364.98193109464415Q184.3244524746446 338.2391163746969 205.20924592720627 306.41813637984677Q226.09403937976796 274.59715638499665 242.36858115291642 239.76043577113467Q258.64312292606485 204.92371515727265 269.64016323315434 169.13367858028982Q280.6372035402439 133.34364200330702 285.4901564034727 98.66271411909446ZM267.2040500712334 402.7994147832349H412.4278703169857V415.20894026286413H267.2040500712334ZM396.6911972278931 241.57980230551576H392.2022961403877L410.81604895328996 220.88631453342802L450.730042497819 251.80537406849896Q448.56357755331453 254.56110320040085 443.52003288500043 257.1001858378523Q438.47648821668633 259.6392684753037 431.9424727765843 261.09511864050296V441.6226807513711Q431.9424727765843 443.0785309165703 426.80381067457466 445.5742485613622Q421.66514857256504 448.0699662061541 414.94071979622487 450.1323908620451Q408.2162910198847 452.19481551793615 402.0984367342362 452.19481551793615H396.6911972278931ZM267.5159924682265 241.57980230551576H412.73981271397884V254.26664957554928H267.5159924682265ZM57.50880302842803 155.97873924591948H161.1175798167763L180.11287317754352 129.02855782413405Q180.11287317754352 129.02855782413405 183.69182329458766 132.11353965632338Q187.27077341163178 135.1985214885127 192.738866682776 140.2679423773448Q198.20695995392026 145.3373632661769 204.10834621396538 150.97873803911207Q210.0097324740105 156.62011281204724 214.65460476001246 161.73289869353886Q212.9214328044089 168.66558651595307 203.51033764049717 168.66558651595307H60.97514693963513ZM118.29152900415448 55.992277567274925 167.5816401683122 60.98371285685869Q166.87102538900695 65.47261394436418 163.18803498334938 68.72231136112083Q159.50504457769185 71.97200877787748 151.54979957897933 72.99456595417581V409.5250928415052Q151.54979957897933 422.5235255708376 148.66415393794605 432.0904134643987Q145.77850829691278 441.6573013579598 135.76101711115638 447.4546473293915Q125.7435259254 453.25199330082324 104.84195757608543 455.5744294438242Q104.13134279678019 447.53281139748697 102.25950994597446 441.1549456247286Q100.38767709516874 434.77707985197026 96.3320689965642 430.61760993359945Q92.15511030605187 426.33678942332085 84.74576450207724 423.5898046774897Q77.33641869810262 420.84281993165865 64.30300842448723 418.9190561709698V412.1769601536409Q64.30300842448723 412.1769601536409 70.05716787210656 412.61025314254175Q75.8113273197259 413.04354613144267 83.73195171184969 413.5375144162974Q91.65257610397347 414.0314827011522 99.00124661199419 414.4647756900531Q106.34991712001492 414.89806867895396 109.1056462519168 414.89806867895396Q114.7038345010396 414.89806867895396 116.49768175259703 413.1042214273965Q118.29152900415448 411.3103741758391 118.29152900415448 406.73474310301464ZM51.2 279.2777200906703Q61.20035935130918 276.9899045542581 78.2460127308696 272.33628788218533Q95.29166611043001 267.6826712101126 117.27682386969113 261.23520728648236Q139.26198162895224 254.78774336285218 163.92488292086693 247.19637167101587Q188.58778421278166 239.60499997917955 213.94398998070722 231.4416744032402L215.48657013122548 237.4385350346751Q191.75931756144288 250.41983592956024 157.24328373064478 269.67514077743743Q122.72724989984665 288.93044562531463 76.55584883023124 311.7386459008709Q75.6546422458407 315.7942539994754 72.88160281064447 318.70595432987386Q70.10856337544821 321.61765466027225 66.88492064805669 322.91753362697494ZM280.6878851681969 241.57980230551576V444.7770822655851Q280.6878851681969 445.95561064038 277.1956650364718 448.76327068216494Q273.7034449047467 451.57093072394997 267.5855906190983 453.7893265783375Q261.4677363334499 456.00772243272513 252.8022334931265 456.00772243272513H246.8057297993859V255.58330343900482L262.29970170466294 231.99560410866022L286.19934343200066 241.57980230551576Z" fill="#111622" /></g></g></g><g transform="rotate(1 256 256)" clip-path="url(#L0_clip)" filter="url(#L0_rs)"><circle cx="130" cy="110" r="5" fill="#F6F1E7" opacity="0.55" /><circle cx="140" cy="200" r="5" fill="#F6F1E7" opacity="0.55" /><circle cx="118" cy="300" r="5" fill="#F6F1E7" opacity="0.55" /><circle cx="300" cy="150" r="5" fill="#F6F1E7" opacity="0.55" /><circle cx="270" cy="300" r="5" fill="#F6F1E7" opacity="0.55" /><circle cx="360" cy="260" r="5" fill="#F6F1E7" opacity="0.55" /><circle cx="330" cy="380" r="5" fill="#F6F1E7" opacity="0.55" /><circle cx="410" cy="320" r="5" fill="#F6F1E7" opacity="0.55" /><circle cx="220" cy="110" r="5" fill="#F6F1E7" opacity="0.55" /><circle cx="390" cy="100" r="5" fill="#F6F1E7" opacity="0.55" /><circle cx="140" cy="400" r="5" fill="#F6F1E7" opacity="0.55" /><circle cx="420" cy="400" r="5" fill="#F6F1E7" opacity="0.55" /><circle cx="150" cy="150" r="3" fill="#F6F1E7" opacity="0.45" /><circle cx="290" cy="360" r="3" fill="#F6F1E7" opacity="0.45" /><circle cx="410" cy="250" r="3" fill="#F6F1E7" opacity="0.45" /><circle cx="250" cy="200" r="3" fill="#F6F1E7" opacity="0.45" /><rect x="250" y="220" width="170" height="200" fill="#997C3C" opacity="0.28" /></g><g transform="rotate(1 256 256)" fill="#3D4E69" opacity="0.14" filter="url(#L0_rs)"><ellipse cx="296" cy="229" rx="21" ry="16.53" /><ellipse cx="372" cy="229" rx="21" ry="16.53" /></g></g>
</svg>
