<svg xmlns="http://www.w3.org/2000/svg" width="512" height="512" viewBox="0 0 512 512"><g><defs>
<filter id="L0_rg" x="-8%" y="-8%" width="116%" height="116%"><feTurbulence type="fractalNoise" baseFrequency="0.042" numOctaves="3" seed="7" result="n" /><feDisplacementMap in="SourceGraphic" in2="n" scale="7" /></filter>
<filter id="L0_rs" x="-25%" y="-25%" width="150%" height="150%"><feTurbulence type="fractalNoise" baseFrequency="0.06" numOctaves="2" seed="13" result="n" /><feDisplacementMap in="SourceGraphic" in2="n" scale="12" /><feGaussianBlur stdDeviation="0.6" /></filter>
<filter id="L0_pa"><feTurbulence type="fractalNoise" baseFrequency="0.012 0.02" numOctaves="2" seed="11" /><feColorMatrix values="0 0 0 0 1 0 0 0 0 1 0 0 0 0 1 0.7 0.7 0.7 0 -0.15" /></filter>
<filter id="L0_pb"><feTurbulence type="fractalNoise" baseFrequency="0.016 0.011" numOctaves="2" seed="29" /><feColorMatrix values="0 0 0 0 1 0 0 0 0 1 0 0 0 0 1 1.2 1.2 1.2 0 -1.15" /></filter>
<mask id="L0_sm"><rect width="512" height="512" fill="#9a9a9a" /><rect width="512" height="512" filter="url(#L0_pa)" /></mask>
<mask id="L0_wt"><rect width="512" height="512" fill="#000" /><rect width="512" height="512" filter="url(#L0_pb)" /></mask>
<radialGradient id="L0_iris" cx="0.5" cy="0.4" r="0.6"><stop offset="0" stop-color="#d6c9ad" /><stop offset="0.6" stop-color="#B3A382" /><stop offset="1" stop-color="#6b6049" /></radialGradient>
<radialGradient id="L0_aura" cx="0.5" cy="0.5" r="0.5"><stop offset="0" stop-color="#B3A382" stop-opacity="0.5" /><stop offset="1" stop-color="#B3A382" stop-opacity="0" /></radialGradient>
</defs><g transform="rotate(2 256 256) scale(1) translate(0 0)"><g filter="url(#L0_rg)"><g mask="url(#L0_sm)"><path d="M403.31672880393 132.4722799201008Q403.31672880393 132.4722799201008 407.3410564381966 135.56725475430534Q411.36538407246314 138.6622295885099 417.4786046323676 143.63294142546303Q423.59182519227204 148.60365326241617 430.4212426293491 154.35025968242198Q437.2506600664261 160.09686610242778 442.707381455038 165.40012927403026Q441.00213407192336 172.2211188064887 431.5892106595437 172.2211188064887H253.2542567162947V159.73867986714777H382.15494591878144ZM365.3739209693057 66.0698203943789Q364.79415090651776 70.63985528618406 361.30692703178386 73.62403820663462Q357.81970315704996 76.60822112708519 350.1460899330342 77.88715666442113Q349.7197780872556 132.1309494940581 348.6539984728089 179.30653406309784Q347.5882188583622 226.48211863213763 341.3129365834424 266.956109080479Q335.03765430852263 307.43009952882034 319.3494486212232 341.4156517793526Q303.66124293392375 375.4012040298848 274.18620346270404 403.4013590368912Q244.71116399148437 431.4015140438977 196.33354858700065 453.4162718073783L191.6781810886848 446.35649145139985Q232.2290762389182 421.95452782626865 256.6738817606921 392.7437384858123Q281.118687282466 363.53294914535593 293.8569484479516 328.67774180064174Q306.5952096134372 293.82253445592755 311.1141502973684 252.86253445592752Q315.6330909812996 211.9025344559275 315.9059446100689 164.12154492346906Q316.1787982388382 116.34055539101058 316.1787982388382 60.88595263453641ZM297.2662140604692 103.61897444137492Q295.9872785231332 107.60923927039215 292.34659643139 110.10741263918405Q288.7059143396468 112.60558600797594 281.4586129614097 113.03189785375463Q270.8180238129554 149.6434467894574 254.1920374209753 181.5657410149824Q237.56605102899522 213.48803524050737 216.3529983425853 235.46873019873868L210.26523708992414 231.6659863919801Q223.53217411032378 204.89367271443567 234.25827145867612 167.7961142270742Q244.98436880702846 130.6985557397128 250.15138075763363 92.17703140262472ZM346.42867873278635 268.7382611654856Q351.3568998598714 294.8286163644941 363.73697479007706 322.18947919621996Q376.1170497202827 349.5503420279458 399.58983613873926 374.30223957712576Q423.0626225571958 399.05413712630565 460.80000000000007 417.8803351378398L460.2542927424614 423.14953550419295Q447.8575375964059 425.1104295200648 440.80653633182084 431.4280269114652Q433.75553506723577 437.7456243028656 431.6239758383425 451.983878053033Q407.1703912251752 435.54523708992417 390.71454326605436 413.35998970680953Q374.25869530693353 391.17474232369494 363.9162435011045 366.32083195215444Q353.5737916952754 341.4669215806139 347.8099782792576 316.7494380234581Q342.0461648632398 292.03195446630224 339.0960447480385 270.56290396036025ZM417.2656243028656 237.58378480516942Q417.2656243028656 237.58378480516942 421.15352512274745 240.67875963937396Q425.0414259426293 243.77373447357851 431.2313756110384 248.74444631053166Q437.4213252794475 253.71515814748483 444.11431590213994 259.4020668616106Q450.80730652483237 265.0889755757364 456.41748613045354 270.39223874733887Q454.7122387473389 277.21322827979736 445.0264617061898 277.21322827979736H222.04851055471713L218.63801578848788 264.7307893404564H395.7969249836983ZM190.85997138915155 98.29920664730992Q190.85997138915155 98.29920664730992 196.89646284055135 103.1334916698784Q202.93295429195112 107.96777669244688 211.05833866898882 114.9506523465333Q219.18372304602656 121.93352800061973 225.37367271443566 128.39633129779816Q223.9412789600904 135.2173208302566 214.68181376472 135.2173208302566H113.71473429922742L110.3042395329982 122.73488189091563H172.40951779568422ZM118.66016242232465 403.1293833750588Q127.680836794175 398.2011622479736 143.51389720047777 388.26799088529856Q159.34695760678056 378.33481952262355 179.32374105910986 365.1616430133532Q199.3005245114392 351.98846650408296 219.78034891805183 338.1758222261447L223.3955717025517 342.9505851362206Q215.44910484976663 352.09065491983097 202.31016673913305 366.8665392096931Q189.17122862849948 381.64242349955526 172.43427472937802 399.3598244066127Q155.69732083025656 417.07722531367006 137.1102648290172 435.3914276861401ZM147.95523080896743 196.2311845778653 155.47503462919911 200.9374706906678V404.16952808887476L129.59046100878555 413.2411210752117L141.6458857287983 399.2585139578016Q146.79569068339146 408.7904815951665 146.68489876963747 417.23121031084156Q146.5741068558835 425.67193902651655 143.71792284519896 431.62309787140566Q140.8617388345144 437.5742567162947 137.34905565253723 440.47310703023464L107.62732423334103 406.539878141288Q117.56874790724733 399.22445115255226 120.3738377100579 395.3365503326704Q123.17892751286846 391.44864951278856 123.17892751286846 386.1113235359368V196.2311845778653ZM185.59041983602364 252.96507405845023Q185.59041983602364 252.96507405845023 191.49048447303875 258.01251500390805Q197.39054911005388 263.0599559493659 205.49890208446692 270.1195607119569Q213.60725505887999 277.179165474548 220.18945376781843 283.9148224004958Q218.4842063847038 290.7358119329542 208.95188756056413 290.7358119329542H63.80183435110095L60.39133958487172 278.2533729936133H166.47486357325766ZM179.05949092834655 169.5445546936063Q179.05949092834655 169.5445546936063 184.95955556536168 174.45556882467946Q190.85962020237682 179.36658295575262 198.84857776502986 186.50291682684838Q206.83753532768287 193.6392506979441 213.30033862486133 200.1020539951225Q212.02140308752539 206.92304352758094 202.33562604637635 206.92304352758094H91.34179030046678L87.93129553423756 194.44060458824H160.33618370610992ZM151.39978838044595 83.68450610552617Q142.5666350308543 107.09759481810278 128.2000311841461 134.14293771780393Q113.8334273374379 161.1882806175051 95.53625636759253 186.64777154585164Q77.23908539774715 212.10726247419822 56.79332379638385 231.34256533549893L51.2 227.69327974574972Q61.94312875097701 211.3399713891516 72.37934106793537 189.9476499917143Q82.81555338489372 168.55532859427694 91.89610105601145 144.91205255618638Q100.97664872712919 121.26877651809582 107.848908060849 98.92146741996586Q114.7211673945688 76.57415832183591 118.2169947673087 58.58372819262178L167.5143059135241 74.81728995068516Q166.50822400495747 78.53470115093307 163.08069783610358 80.81971859683566Q159.6531716672497 83.10473604273824 151.39978838044595 83.68450610552617Z" fill="#3D4E69" /></g><g mask="url(#L0_wt)"><path d="M403.31672880393 132.4722799201008Q403.31672880393 132.4722799201008 407.3410564381966 135.56725475430534Q411.36538407246314 138.6622295885099 417.4786046323676 143.63294142546303Q423.59182519227204 148.60365326241617 430.4212426293491 154.35025968242198Q437.2506600664261 160.09686610242778 442.707381455038 165.40012927403026Q441.00213407192336 172.2211188064887 431.5892106595437 172.2211188064887H253.2542567162947V159.73867986714777H382.15494591878144ZM365.3739209693057 66.0698203943789Q364.79415090651776 70.63985528618406 361.30692703178386 73.62403820663462Q357.81970315704996 76.60822112708519 350.1460899330342 77.88715666442113Q349.7197780872556 132.1309494940581 348.6539984728089 179.30653406309784Q347.5882188583622 226.48211863213763 341.3129365834424 266.956109080479Q335.03765430852263 307.43009952882034 319.3494486212232 341.4156517793526Q303.66124293392375 375.4012040298848 274.18620346270404 403.4013590368912Q244.71116399148437 431.4015140438977 196.33354858700065 453.4162718073783L191.6781810886848 446.35649145139985Q232.2290762389182 421.95452782626865 256.6738817606921 392.7437384858123Q281.118687282466 363.53294914535593 293.8569484479516 328.67774180064174Q306.5952096134372 293.82253445592755 311.1141502973684 252.86253445592752Q315.6330909812996 211.9025344559275 315.9059446100689 164.12154492346906Q316.1787982388382 116.34055539101058 316.1787982388382 60.88595263453641ZM297.2662140604692 103.61897444137492Q295.9872785231332 107.60923927039215 292.34659643139 110.10741263918405Q288.7059143396468 112.60558600797594 281.4586129614097 113.03189785375463Q270.8180238129554 149.6434467894574 254.1920374209753 181.5657410149824Q237.56605102899522 213.48803524050737 216.3529983425853 235.46873019873868L210.26523708992414 231.6659863919801Q223.53217411032378 204.89367271443567 234.25827145867612 167.7961142270742Q244.98436880702846 130.6985557397128 250.15138075763363 92.17703140262472ZM346.42867873278635 268.7382611654856Q351.3568998598714 294.8286163644941 363.73697479007706 322.18947919621996Q376.1170497202827 349.5503420279458 399.58983613873926 374.30223957712576Q423.0626225571958 399.05413712630565 460.80000000000007 417.8803351378398L460.2542927424614 423.14953550419295Q447.8575375964059 425.1104295200648 440.80653633182084 431.4280269114652Q433.75553506723577 437.7456243028656 431.6239758383425 451.983878053033Q407.1703912251752 435.54523708992417 390.71454326605436 413.35998970680953Q374.25869530693353 391.17474232369494 363.9162435011045 366.32083195215444Q353.5737916952754 341.4669215806139 347.8099782792576 316.7494380234581Q342.0461648632398 292.03195446630224 339.0960447480385 270.56290396036025ZM417.2656243028656 237.58378480516942Q417.2656243028656 237.58378480516942 421.15352512274745 240.67875963937396Q425.0414259426293 243.77373447357851 431.2313756110384 248.74444631053166Q437.4213252794475 253.71515814748483 444.11431590213994 259.4020668616106Q450.80730652483237 265.0889755757364 456.41748613045354 270.39223874733887Q454.7122387473389 277.21322827979736 445.0264617061898 277.21322827979736H222.04851055471713L218.63801578848788 264.7307893404564H395.7969249836983ZM190.85997138915155 98.29920664730992Q190.85997138915155 98.29920664730992 196.89646284055135 103.1334916698784Q202.93295429195112 107.96777669244688 211.05833866898882 114.9506523465333Q219.18372304602656 121.93352800061973 225.37367271443566 128.39633129779816Q223.9412789600904 135.2173208302566 214.68181376472 135.2173208302566H113.71473429922742L110.3042395329982 122.73488189091563H172.40951779568422ZM118.66016242232465 403.1293833750588Q127.680836794175 398.2011622479736 143.51389720047777 388.26799088529856Q159.34695760678056 378.33481952262355 179.32374105910986 365.1616430133532Q199.3005245114392 351.98846650408296 219.78034891805183 338.1758222261447L223.3955717025517 342.9505851362206Q215.44910484976663 352.09065491983097 202.31016673913305 366.8665392096931Q189.17122862849948 381.64242349955526 172.43427472937802 399.3598244066127Q155.69732083025656 417.07722531367006 137.1102648290172 435.3914276861401ZM147.95523080896743 196.2311845778653 155.47503462919911 200.9374706906678V404.16952808887476L129.59046100878555 413.2411210752117L141.6458857287983 399.2585139578016Q146.79569068339146 408.7904815951665 146.68489876963747 417.23121031084156Q146.5741068558835 425.67193902651655 143.71792284519896 431.62309787140566Q140.8617388345144 437.5742567162947 137.34905565253723 440.47310703023464L107.62732423334103 406.539878141288Q117.56874790724733 399.22445115255226 120.3738377100579 395.3365503326704Q123.17892751286846 391.44864951278856 123.17892751286846 386.1113235359368V196.2311845778653ZM185.59041983602364 252.96507405845023Q185.59041983602364 252.96507405845023 191.49048447303875 258.01251500390805Q197.39054911005388 263.0599559493659 205.49890208446692 270.1195607119569Q213.60725505887999 277.179165474548 220.18945376781843 283.9148224004958Q218.4842063847038 290.7358119329542 208.95188756056413 290.7358119329542H63.80183435110095L60.39133958487172 278.2533729936133H166.47486357325766ZM179.05949092834655 169.5445546936063Q179.05949092834655 169.5445546936063 184.95955556536168 174.45556882467946Q190.85962020237682 179.36658295575262 198.84857776502986 186.50291682684838Q206.83753532768287 193.6392506979441 213.30033862486133 200.1020539951225Q212.02140308752539 206.92304352758094 202.33562604637635 206.92304352758094H91.34179030046678L87.93129553423756 194.44060458824H160.33618370610992ZM151.39978838044595 83.68450610552617Q142.5666350308543 107.09759481810278 128.2000311841461 134.14293771780393Q113.8334273374379 161.1882806175051 95.53625636759253 186.64777154585164Q77.23908539774715 212.10726247419822 56.79332379638385 231.34256533549893L51.2 227.69327974574972Q61.94312875097701 211.3399713891516 72.37934106793537 189.9476499917143Q82.81555338489372 168.55532859427694 91.89610105601145 144.91205255618638Q100.97664872712919 121.26877651809582 107.848908060849 98.92146741996586Q114.7211673945688 76.57415832183591 118.2169947673087 58.58372819262178L167.5143059135241 74.81728995068516Q166.50822400495747 78.53470115093307 163.08069783610358 80.81971859683566Q159.6531716672497 83.10473604273824 151.39978838044595 83.68450610552617Z" fill="#111622" /></g></g></g><g transform="rotate(2 256 256)" filter="url(#L0_rs)"><path d="M356 300 l16 10 l-6 16 l-14 -12 Z" fill="#B3A382" opacity="0.5" /></g><g transform="rotate(2 256 256)" fill="#3D4E69" opacity="0.14" filter="url(#L0_rs)"><ellipse cx="142" cy="196" rx="21" ry="13" /><ellipse cx="330" cy="196" rx="19" ry="12" /></g></g>
</svg>
