<svg xmlns="http://www.w3.org/2000/svg" width="120" height="120" viewBox="0 0 120 120"><ellipse cx="60" cy="102" rx="31" ry="4" fill="#111622" opacity=".10"/><path d="M28 58 h64 v26 a7 7 0 0 1 -7 7 h-50 a7 7 0 0 1 -7 -7 z" fill="#0F74C4" fill-opacity=".13" stroke="#111622" stroke-width="2.6" stroke-linejoin="round"/><path d="M28 58 a32 26 0 0 1 64 0 z" fill="#0F74C4" fill-opacity=".52" stroke="#111622" stroke-width="2.6"/><path d="M52 32 h16 v5 h-16 z" fill="#0F74C4" fill-opacity=".6" stroke="#111622" stroke-width="1.8"/><path d="M40 56 l6 -14 M56 50 l-4 -12 M72 56 l-3 -16 M84 54 l-8 -9" stroke="#111622" stroke-width="1.2" opacity=".28" fill="none"/><path d="M38 66 l9 8 M62 64 l-6 12 M76 68 l8 6" stroke="#111622" stroke-width="1.2" opacity=".24" fill="none"/><path d="M28 58 h64" stroke="#111622" stroke-width="2.2"/><path d="M36 91 h48" stroke="#111622" stroke-width="2.6" stroke-linecap="round"/><path d="M40 50 a24 20 0 0 1 12 -14" fill="none" stroke="#FFFFFF" stroke-width="3.4" stroke-linecap="round" opacity=".75"/></svg>