<svg xmlns="http://www.w3.org/2000/svg" width="120" height="120" viewBox="0 0 120 120"><defs><radialGradient id="g-ready" cx="50%" cy="50%" r="50%"><stop offset="0%" stop-color="#FFD470" stop-opacity=".9"/><stop offset="52%" stop-color="#FFCF5E" stop-opacity=".38"/><stop offset="100%" stop-color="#FFCF5E" stop-opacity="0"/></radialGradient></defs><ellipse cx="60" cy="60" rx="46" ry="44" fill="url(#g-ready)"/><g stroke="#C9A94A" stroke-width="3" stroke-linecap="round"><path d="M60 20 v-7"/><path d="M33 29 l-5 -6"/><path d="M87 29 l5 -6"/><path d="M21 57 h-7"/><path d="M99 57 h7"/><path d="M27 85 l-6 5"/><path d="M93 85 l6 5"/></g><g fill="#FFF3CF" stroke="#C9A94A" stroke-width="1.2"><path d="M30 38 l2.6 5.4 5.4 2.6 -5.4 2.6 -2.6 5.4 -2.6 -5.4 -5.4 -2.6 5.4 -2.6z"/><path d="M92 70 l2.2 4.6 4.6 2.2 -4.6 2.2 -2.2 4.6 -2.2 -4.6 -4.6 -2.2 4.6 -2.2z"/></g></svg>